# xmcd
#
# Track frame offsets: 
#        150
#        13990
#        30855
#        51368
#        65453
#        79808
#        93715
#        106765
#        122258
#        136980
#
# Disc length: 2037 seconds
#
# Revision: 4
# Processed by: cddbd v1.5.1PL0 Copyright (c) Steve Scherf et al.
# Submitted via: ExactAudioCopy v0.95a5
#
DISCID=7a07f30a
DTITLE=Reba McEntire - Sweet Sixteen
DYEAR=1989
DGENRE=Country
TTITLE0=Cathy's Clown
TTITLE1='Til Love Comes Again
TTITLE2=It Always Rains On Saturday
TTITLE3=Am I The Only One Who Cares
TTITLE4=Somebody Up There Likes Me
TTITLE5=You Must Really Love Me
TTITLE6=Say The Word
TTITLE7=Little Girl
TTITLE8=Walk On
TTITLE9=A New Love
EXTD=(c)1989 MCA Records, Inc.\nupc 018111897228\nOrig.  1989 released
EXTD=as MCAD-6294
EXTT0=
EXTT1=
EXTT2=
EXTT3=
EXTT4=
EXTT5=
EXTT6=
EXTT7=
EXTT8=
EXTT9=
PLAYORDER=
